<svg id="Capa_1" data-name="Capa 1" xmlns="http://www.w3.org/2000/svg" viewBox="0 0 196.98 269.04"><defs><style>.cls-1{fill:#e30c81;}</style></defs><path class="cls-1" d="M0,217.75H4.79c0,.5.07.9.07,1.3q0,15.54,0,31.06c0,.29,0,.58,0,.87a2.92,2.92,0,0,0,3.19,3.16c3.46,0,6.92,0,10.38,0h1.09v4.53a5.94,5.94,0,0,1-.68.08H3.56a3.62,3.62,0,0,1-3.56-2Z"/><path class="cls-1" d="M197,258.72h-4.76V217.56H197Z"/><path class="cls-1" d="M132.6,234.57c3.35-4.86,7.84-7.56,13.71-7.55s10.3,2.68,13.65,7.53c3.66-5.25,8.6-7.93,15-7.49a15.35,15.35,0,0,1,11,5.65,16.08,16.08,0,1,1-26,18.82c-3.29,4.81-7.8,7.51-13.63,7.51s-10.37-2.66-13.71-7.55a16.11,16.11,0,0,1-11.68,7.43c-5,.62-9.3-.9-13.25-4.39V269H103c0-.27-.07-.54-.07-.82,0-8.4,0-16.8,0-25.2a15.89,15.89,0,0,1,16.5-16,15.58,15.58,0,0,1,12.54,6.64C132.15,233.93,132.35,234.22,132.6,234.57Zm41.05-2.82A11.29,11.29,0,1,0,184.93,243,11.31,11.31,0,0,0,173.65,231.75Zm-27.31,0a11.29,11.29,0,1,0,11.24,11.37A11.26,11.26,0,0,0,146.34,231.75ZM107.64,243A11.3,11.3,0,1,0,119,231.75,11.31,11.31,0,0,0,107.64,243Z"/><path class="cls-1" d="M88.46,246.82a15.67,15.67,0,0,1-18,11.85,15.86,15.86,0,1,1,5.39-31.26A15.7,15.7,0,0,1,88.9,243.9H61.72c.07.55.1,1,.19,1.4a11.41,11.41,0,0,0,21.58,2.52,1.44,1.44,0,0,1,1.64-1C86.21,246.87,87.31,246.82,88.46,246.82Zm-4.55-7.34c-1-4.72-6.61-8.38-11.9-7.86-4.49.43-9.54,4.56-9.58,7.86Z"/><path class="cls-1" d="M43.58,252.65c.79-2,1.59-4,2.38-6q3.43-8.67,6.86-17.34a1.16,1.16,0,0,1,1.31-.91c1.43.06,2.87,0,4.44,0-.17.48-.27.81-.4,1.13Q52.56,243.75,47,257.91a1.11,1.11,0,0,1-1.25.87c-1.53,0-3.07,0-4.61,0a1,1,0,0,1-1.06-.72q-5.67-14.4-11.39-28.77c-.09-.23-.14-.47-.25-.82,1.7,0,3.29,0,4.89,0,.27,0,.63.46.76.78,2.39,5.95,4.74,11.91,7.11,17.86l2.19,5.52Z"/><path class="cls-1" d="M103.42,233.29H99.66c-2.18,0-3.3,1.13-3.3,3.34q0,10.49,0,21v1.23H91.6v-1q0-11,0-21.92c0-4.47,2.89-7.34,7.35-7.35h4.47Z"/><path class="cls-1" d="M26.2,258.71H21.58V228.54H26.2Z"/><path class="cls-1" d="M21.57,217.63c1.45,0,2.78,0,4.12,0a.81.81,0,0,1,.55.54c0,1.4,0,2.8,0,4.27H21.57Z"/><path class="cls-1" d="M15.84,36.21a16.14,16.14,0,0,0-.24,2q0,72.27,0,144.55c0,7.85,4.4,11.95,12.47,11.95q37.14,0,74.26,0h5.82v14.79c-2,.12-4.11.35-6.17.36q-41.34,0-82.68,0c-14.4,0-15.08-.47-19.31-13.22V36.21Z"/><path class="cls-1" d="M182.19,36.21a19.36,19.36,0,0,0,3.54,1.06c7.15.7,10.58,4.1,11.13,11.29.12,1.64.11,3.29.11,4.94q0,75.18,0,150.35v5.32H182.37V66.9c0-11.35-3.73-15.14-14.93-15.14H89.12V36.21Z"/><path class="cls-1" d="M37.63,36.21q0,61.35,0,122.69c0,9.35,4.16,13.55,13.59,13.59,17,.06,34,0,50.95,0h6.1v15.16H90.81c-17.65,0-35.29,0-52.94,0-10.69,0-15.11-4.21-15.13-14.92q-.09-68.27,0-136.54Z"/><path class="cls-1" d="M60.4,36.21C60.25,38,60,39.79,60,41.58q0,47,0,94c0,10.91,3.87,14.71,15,14.72s22.34,0,33.74,0v14.84h-5.72c-14,0-28-.35-42,.11-13.24.43-16.08-5.35-16.19-16.25-.24-24.89-.07-49.79-.08-74.69q0-19,0-38.09Z"/><path class="cls-1" d="M82.19,36.21q0,39.35,0,78.69c0,8.56,4.39,13.07,13,13.34,4.41.14,8.83,0,13.48,0v14.44c-10.74,0-21.56.46-32.32-.19-5.57-.34-8.72-5.05-8.9-11.31-.28-9.89-.25-19.79-.24-29.68,0-21.77.1-43.55.15-65.32Z"/><path class="cls-1" d="M89.55,73.72V59.31c1.66-.08,3.1-.2,4.55-.2q31.65,0,63.32,0c14.42,0,17.66,3.35,17.66,17.76V209.23h-14.5v-6q0-56.4,0-112.8c0-12.39-4.27-16.68-16.52-16.68H89.55Z"/><path class="cls-1" d="M138.71,209c-.11-2.2-.31-4.29-.31-6.37q0-42.81,0-85.62c0-1.15,0-2.3,0-3.46-.08-15.51-5.27-17.13-17.7-17.8-10.18-.54-20.42-.11-31-.11V81.07H101.3c12.38,0,24.75-.1,37.12,0,9.92.11,14.16,4.39,14.17,14.22q.07,54.44,0,108.87c0,1.47-.14,2.93-.23,4.77Z"/><path class="cls-1" d="M130,209.11H116v-5.54q0-34.6,0-69.23c0-11.59-4.48-16-16.13-16.12-3.28,0-6.57,0-10.22,0v-14.3c10.33,0,20.82-.46,31.25.19,5.7.36,9.51,5.25,9.52,10.85.11,31,0,62,0,93A4.62,4.62,0,0,1,130,209.11Z"/><path class="cls-1" d="M92.33,11.46l-.79.92c-4-2.51-7.74-5.11-11.73-7.23A29,29,0,0,0,72,2.59,10.13,10.13,0,0,0,67.11,3a3,3,0,0,0-1.67,4.78,15.33,15.33,0,0,0,4.31,4c4.15,2.52,8.87,3.35,13.62,3.88,2,.22,4.07.31,5.7.43C89.71,18.4,90.31,20.53,91,23c-6.22,4.56-12.89,9.27-21.41,10.13a11.94,11.94,0,0,1-3.47-.25c-3.23-.65-5.07-2.58-5.21-6-.22-5.52-.2-11.06-.22-16.59a28.27,28.27,0,0,1,.38-4.3c.57-3.8,2.65-5.87,6.54-5.93a25.75,25.75,0,0,1,7.34,1C80.17,2.61,88.2,7.54,92.33,11.46Zm-24.62-10c-3.23,0-5.16,1.52-5.48,4.33a97.91,97.91,0,0,0-.14,21.51c.33,3,2.2,4.51,5.36,4.5a5.11,5.11,0,0,1-4.17-5.44c0-6.29,0-12.58.1-18.87C63.41,4.48,64.39,2.13,67.71,1.42Z"/><path class="cls-1" d="M106.14,23c.69-2.48,1.29-4.61,1.87-6.71a116.59,116.59,0,0,0,11.63-1.7,46.25,46.25,0,0,0,9-3.62,8.35,8.35,0,0,0,2.92-2.87c1.53-2.23.66-4.76-2-5.27a16,16,0,0,0-6.21.06c-5.81,1.25-10.65,4.5-15.31,8-.7.53-1.39,1.08-2.14,1.66l-1.24-1.19C111.3,6.29,117.94,1.49,126.4.12a14.11,14.11,0,0,1,3-.08c4,.22,6.51,2.21,6.68,6.18.3,7.06.26,14.15.11,21.22-.07,3-2.19,4.89-5.31,5.52a17.26,17.26,0,0,1-9-1C115.93,30,110.8,26.55,106.14,23Zm11.26-6.43c4.78-.68,9.87-1.86,14.13-5.25a10.94,10.94,0,0,0,2.64-3.14A4.27,4.27,0,0,0,132,2a22.17,22.17,0,0,0-2.94-.88,1.15,1.15,0,0,0,.67.56c3.93,1.48,5,4.83,2.15,7.93a17,17,0,0,1-5.44,3.95A89.79,89.79,0,0,1,117.4,16.58Zm9.24,15.28c-6.72-1.68-12.43-5.3-17.72-9.23.49-1.91.92-3.62,1.36-5.32l-.83-.28c-1.46,1.47-.61,3.95-2.23,5.4C113.32,26.8,119.26,30.79,126.64,31.86Z"/><path class="cls-1" d="M98.42,24.35c-4.22-.05-7.5-3.09-7.44-6.87s3.51-6.87,7.74-6.78,7.53,3.19,7.43,7.08S102.68,24.41,98.42,24.35ZM97.91,12.1a5.69,5.69,0,0,0-5.82,5.49,5.82,5.82,0,0,0,6.1,5.47c-2.7-1-4.71-2.46-4.75-5.46S95.31,13.18,97.91,12.1Z"/></svg>