<svg id="Capa_1" data-name="Capa 1" xmlns="http://www.w3.org/2000/svg" viewBox="0 0 216.22 300" fill="#C8A2C8"><path d="M84.72,300c-1.94-1.47-3.64-3.1-2.61-5.84s3.29-3,5.77-3q37.77,0,75.53,0h3.93V288q0-18,0-36a12.62,12.62,0,0,1,.24-3.2,4,4,0,0,1,4.53-3.28,4.06,4.06,0,0,1,3.9,3.71,19,19,0,0,1,.1,3.21v38.49a15.11,15.11,0,0,0,2,.27c6.83,0,13.67.14,20.49-.06,7-.19,9.71-3.17,8.5-10.11-2.18-12.57-4.81-25.07-7.28-37.59-1.66-8.42-3.42-16.81-5-25.23-1.67-8.84-6.52-15-15.23-17.5-8.51-2.44-17.16-4.44-25.79-6.45-.87-.2-2.33.66-3,1.46-8.29,9.6-16.48,19.29-24.71,28.94-3.82,4.48-8.28,8.05-14.26,9.05-8.11,1.37-14.87-1.43-20.15-7.48-8.66-9.93-17.14-20-25.59-30.11-1.43-1.69-2.64-2.29-4.93-1.67-7.33,2-14.74,3.71-22.12,5.5-9.92,2.41-15.76,8.45-17.69,18.65-3.81,20.11-8,40.15-11.94,60.22A27,27,0,0,0,9,282.29c-.37,5.58,1.81,8.5,7.35,8.72,7.87.3,15.75.07,24,.07v-3.23c0-12,0-24,0-36,0-1.25-.13-2.9.57-3.65,1.12-1.2,2.92-2.53,4.36-2.45,1.28.07,2.68,1.81,3.6,3.12.52.74.22,2.08.22,3.15q0,17.87,0,35.72v3.49c5.51,0,10.76-.19,16,.12A6.61,6.61,0,0,1,69.42,294c.63.91,0,2.88-.45,4.27-.21.72-1.19,1.2-1.82,1.78H15c-3.26-1.42-7-2.27-9.69-4.38-5.26-4.07-6-10.23-4.86-16.27,4.21-22,8.52-44,13.24-65.93,2.58-12,10.93-18.77,22.48-21.74,14.07-3.61,28.18-7,42.27-10.53.9-.22,1.77-.55,2.65-.83l0-.92a19.24,19.24,0,0,0-3-.49c-9.86,0-19.72,0-29.58,0s-14.87-5-14.87-14.95c0-31.82-.24-63.65.07-95.47C34.07,39.62,47.46,18.59,73.42,6c14-6.77,28.8-7.49,43.72-3.77,6.57,1.64,12.88,4.35,19.35,6.44a11.47,11.47,0,0,0,5.3.8C159.38,6,173.63,18.17,179.65,32a34.93,34.93,0,0,1,3.18,14.75c-.08,3.47-1.61,5.46-4.33,5.5s-4.28-1.9-4.44-5.38c-.59-13-8.15-24.08-19.52-27.94a22.17,22.17,0,0,0-9.45-.83A26,26,0,0,1,131,15.93C112.13,7.66,92.88,5.38,74,15.48,54.56,25.9,43.29,42.54,42.77,64.65c-.79,33.46-.25,67-.26,100.44,0,3.33,1.36,4.95,4.4,5,11,.07,22.06,0,33.09,0a3,3,0,0,0,.84-.26c.74-2.2,0-3.52-2-4.75-16.67-10.17-26.07-25.15-28.44-44.4a106.21,106.21,0,0,1-.19-17.84C50.5,97,55.68,93,61.84,92.64c7.38-.37,14.87-.35,22.1-1.68,18.71-3.44,33.52-13.7,45.7-28,1-1.18,1.9-2.48,2.94-3.65,3.64-4.08,9.09-3.75,12.2.75.83,1.2,1.49,2.53,2.35,3.7a13.5,13.5,0,0,0,8.41,5.41c4.78.95,8.56,3.11,10.28,8a2.61,2.61,0,0,0,1.41,1.3c2.08.78,4.22,1.41,6.75,2.23,0-3.2,0-6.27,0-9.34,0-1.36-.25-3,.41-4a7.35,7.35,0,0,1,4-3.09c2-.37,3.68,1,4.13,3.28a11.4,11.4,0,0,1,.2,2.33q0,47.57,0,95.14c0,8.7-5.21,13.8-13.89,13.85-10.24.07-20.49,0-30.74,0a25,25,0,0,0-2.86.31l-.1.93a25,25,0,0,0,2.74,1q20.84,5.22,41.7,10.39c13.27,3.28,21.28,11.52,23.92,25q6,30.71,12.18,61.38c1.69,8.52-.59,15.55-6.56,19.17-2.2,1.33-4.83,2-7.26,2.91Zm53-233c.3-.17.09-.11,0,0-.58.66-1.12,1.35-1.68,2A88.79,88.79,0,0,1,93.54,97.72a89.55,89.55,0,0,1-30.31,3.76c-3.59-.14-4.45.64-4.39,4.16.1,5.45-.05,11,.7,16.33a49.12,49.12,0,0,0,57.93,41.51c22.7-4.33,39-22.69,40-45.82.53-12,.18-24,.24-36,0-2.21-1-3.27-3.18-3.81-2.61-.66-5.45-1.3-7.6-2.8C143.65,72.79,140.88,69.77,137.76,67ZM126.43,170.46a59.72,59.72,0,0,1-36.55-.05v11.25c0,4.89-.85,5.94-5.51,7.1-3.44.85-6.87,1.74-10.75,2.73,2.55,3,4.69,5.65,7,8.15a3.47,3.47,0,0,0,2.36.72q25.17.06,50.36,0c.74,0,1.76,0,2.17-.47,2.41-2.61,4.68-5.35,7.3-8.41l-11-2.76c-4.33-1.08-5.27-2.2-5.35-6.69C126.38,178.35,126.43,174.65,126.43,170.46ZM174,111.78a27,27,0,0,1-4.68,1.71c-2.3.36-2.87,1.54-3,3.73-1.2,21-10.72,37-28.65,48-1.84,1.12-3.15,2.22-2.09,4.73.9,0,1.86.12,2.81.12q14.63,0,29.24,0c5.34,0,6.35-1,6.35-6.29q0-24.42,0-48.83ZM88.53,209.34c4.16,4.63,7.63,9.08,11.71,12.89a11.11,11.11,0,0,0,15.44.27c4.28-3.83,7.86-8.44,12.17-13.16ZM166.6,104.89c5.49-1.43,7.75-4.64,7.37-10.06-.24-3.39-3.43-6.45-7.37-7Z" transform="translate(0 0)"/></svg>