<svg id="Capa_1" data-name="Capa 1" xmlns="http://www.w3.org/2000/svg" viewBox="0 0 202.67 300" fill="#C8A2C8"><path d="M135.3,0c2.56.55,5.13,1,7.67,1.67a54.53,54.53,0,0,1,41.44,51.92c.25,19.82.08,39.65.06,59.47,0,3.7-2,5.92-5,5.92s-4.93-2.13-4.94-5.94c0-19.43.09-38.87,0-58.3A44.47,44.47,0,0,0,141,11.53a49,49,0,0,0-11.57-1.48c-14-.17-27.93-.25-41.89,0-19.42.31-33.43,9.33-41.69,27-1.26,2.69-2.91,4-5.91,4.36C32.88,42.08,28.77,46.8,28.75,54q-.06,29.59,0,59.18a10.61,10.61,0,0,0,5.71,10v-4.74c0-11.23,0-22.46,0-33.69,0-4.27,2-6.07,6.18-5.82,11,.66,18.83-5.6,20.8-16.69.24-1.35.38-2.71.53-4.06.48-4.52,4.34-6.22,8.33-3.75,6,3.74,12,7.7,18.27,11A155.45,155.45,0,0,0,139.79,82c2.67.39,4.66,1.53,5.1,4.39a4.35,4.35,0,0,1-2.62,5,8.53,8.53,0,0,1-4.26.42A170.7,170.7,0,0,1,77.08,70.56c-2-1.18-4-2.39-6.33-3.77-4,13-12.39,20.77-26.32,22.2v3c0,12.89,0,25.78,0,38.67.1,34,27.53,59.57,61.41,57.39,26-1.68,49-23.17,51.64-49,1-9.38.55-18.91.67-28.38.09-6.54,0-13.08,0-19.62,0-3.69,1.91-6,4.89-6.09s5.07,2.28,5.07,6.16c0,13.57.13,27.15,0,40.72a66.88,66.88,0,0,1-73,66c-4.14-.37-8.23-1.37-12.26-2.06-1.12,3.49-2.26,7-3.32,10.49a1.86,1.86,0,0,0,.22,1.54c7.06,7.93,14.16,15.81,21.45,23.92,2.9-3.31,5.55-6.4,8.28-9.44,2.21-2.47,4.71-3,7-1.53s2.64,3.49,1.58,6.68c-.18.56-.3,1.45,0,1.81,3.75,4.45,7.59,8.83,11.73,13.61,1.71-7.69,3.35-14.79,4.78-21.93.16-.79-.72-2-1.4-2.72-2.69-2.94-5.69-5.6-8.17-8.7a4.83,4.83,0,0,1,.95-7.22c2.39-1.7,5.37-1,7.31,1.78,4.42,6.46,10.51,9.62,18.31,9.73a51.54,51.54,0,0,1,51,50.75c.18,9.76.06,19.53,0,29.29,0,3.69-2,6-4.94,6.06s-5-2.23-5-6.17c0-9,0-18,0-26.95,0-24.63-17.63-42.53-42.22-43-1.93,0-3.85-.31-6-.5-1.87,8.44-3.73,16.79-5.57,25.15-.47,2.1-.81,4.22-1.39,6.29-1.19,4.2-5.69,5.36-8.68,2.16-3.18-3.4-6.16-7-9.82-11.17,1.13,9,2.14,17.18,3.15,25.34.9,7.26,1.85,14.52,2.68,21.79.5,4.32-1,6.7-4.17,7.07s-5.24-1.83-5.75-5.95q-3.28-26.58-6.59-53.16a1.9,1.9,0,0,0-.17-.51c-2.25,1.34-4.48,3.7-6.72,3.71s-4.54-2.29-6.94-3.66c-.8,6.32-1.66,12.94-2.48,19.57-1.44,11.53-2.83,23.05-4.28,34.57-.47,3.72-2.66,5.74-5.62,5.44-3.14-.33-4.75-2.72-4.26-6.73,1.87-15.5,3.81-31,5.84-47.4-2.18,2.46-3.85,4.35-5.51,6.24-1.36,1.54-2.7,3.09-4,4.64-1.48,1.71-3.48,2.73-5.44,1.62a7.56,7.56,0,0,1-3.52-4.14c-2.38-9.75-4.43-19.59-6.59-29.4-.11-.46-.27-.9-.63-2.06-6.89,1.22-14,1.62-20.57,3.81-16.47,5.52-27.15,21.2-27.34,38.84-.09,9.47,0,18.94,0,28.41,0,3.95-1.9,6.24-5,6.19S0,297.64,0,294c.11-11.61-.32-23.27.58-34.82C2.35,236.81,21.78,217.21,44,214.47c2.81-.34,5.64-.49,8.47-.58A21.13,21.13,0,0,0,72.57,194a3,3,0,0,0-1.76-3.21Q37.5,172.56,34.49,134.67a3.93,3.93,0,0,0-.16-.68,53.51,53.51,0,0,1-4.93-2.2c-6.72-3.84-10.51-9.7-10.58-17.41q-.26-30.75,0-61.52c.07-10,6.59-18,16.24-20.9a5.39,5.39,0,0,0,3-2.2C47.26,12.89,61.26,3,80.33.44a4.51,4.51,0,0,0,1-.44ZM73.05,215.48a50.54,50.54,0,0,0-4.19,3.21,2.83,2.83,0,0,0-.89,2.15c1.5,7.2,3.12,14.37,4.84,22.11l12.27-14.12Z" transform="translate(0)"/></svg>