<svg id="Capa_1" data-name="Capa 1" xmlns="http://www.w3.org/2000/svg" viewBox="0 0 185.72 300"><defs><style>.cls-1{fill:#fff;}</style></defs><path class="cls-1" d="M185.72,65.13c0-.24,0-.47,0-.71,0-.66-.25-.91-.94-.87-2,.11-3.95.15-5.93.25L143,65.72l-14.81.8c-2.36.12-4.72.22-7.08.33a35.53,35.53,0,0,1,5.12-3q17.49-8.91,35-17.79c1-.5,1.12-.92.48-1.79a16.47,16.47,0,0,1-1.43-2.43c-.48-1-1-1-1.85-.38-6.53,4.27-13.11,8.49-19.67,12.73-5.73,3.71-11.52,7.32-17.13,11.21a11.15,11.15,0,0,1-6.79,1.75c-.51,0-.79-.18-.77-.74.06-1.91.07-3.72,1.24-5.51,8.1-12.29,16.08-24.67,24.09-37,1.32-2,1.31-2-.72-3.22a16.76,16.76,0,0,1-1.69-1c-.73-.55-1.15-.36-1.53.41q-2.34,4.72-4.73,9.44L117.17,56c-.82,1.59-1.67,3.17-2.51,4.75a20.43,20.43,0,0,1-.08-4.68c.54-10.25,1-20.5,1.54-30.76.39-7.85.77-15.71,1.2-23.56C117.39.66,117.14.07,115.9.3c-.42-.45-1-.26-1.47-.26C99.72,0,85,.07,70.29,0c-1.43,0-1.75.45-1.65,1.76q.45,6.41.75,12.82c.42,8.65.79,17.3,1.19,26,.25,5.17.55,10.34.78,15.51a27,27,0,0,1,0,4.84,3.17,3.17,0,0,1-1.07-1.45c-2.55-5-5.07-10-7.6-14.94L51.16,22c-1.41-2.77-1.4-2.77-4.07-1.33a6.08,6.08,0,0,1-.88.45c-1.07.4-1.17,1-.54,1.92,2.78,4.19,5.5,8.42,8.24,12.63,5.25,8.07,10.48,16.16,15.77,24.2,1.32,2,2.36,4,2.14,6.53,0,.31.16.77-.32.75-1.85-.08-3.83.53-5.53-.51-3.75-2.32-7.44-4.76-11.15-7.16-4.26-2.75-8.49-5.55-12.77-8.27-3.24-2.06-6.36-4.31-9.69-6.25-1.85-1.08-3.6-2.37-5.38-3.58-.8-.55-1.13-.32-1.51.38-.53,1-1.06,2-1.67,2.94-.41.65-.21,1,.4,1.29l6.5,3.32L58.27,63.19c2.24,1.13,4.47,2.3,6.7,3.45-4.7,0-9.34-.16-14-.41-7.19-.39-14.37-.86-21.56-1.26-3.05-.17-6.12-.22-9.17-.4-6.16-.35-12.31-.83-18.48-.85l-.28,0-.55,0c-1.29-.18-.91.8-.91,1.4Q0,87.9,0,110.71c0,.19,0,.38,0,.57-.06.66.24.94.9.91,1.78-.1,3.57-.17,5.35-.26a13.41,13.41,0,0,0,1.54.1c4.14-.24,8.27-.6,12.41-.73,6.58-.19,13.14-.57,19.72-.89,7.33-.36,14.67-.62,22-1a40,40,0,0,1,5-.17,13.37,13.37,0,0,1-2.8,1.47c-5.07,2.6-10.11,5.24-15.18,7.83q-12.36,6.3-24.77,12.57c-.63.32-.81.72-.44,1.35s.88,1.56,1.33,2.33c.93,1.59,1,1.62,2.53.63l8.66-5.71c3-2,6-3.93,8.95-5.87q9.54-6.15,19.09-12.28c2.18-1.39,4.21-3.21,7.16-2.67.74.13,1.11.23,1.08,1,0,1.4.12,2.82-.6,4.12.87.26.54,1,.53,1.53-.13,5.64-.36,11.29-.44,16.94-.12,9.18-.35,18.36-.55,27.54-.21,9.7-.33,19.4-.6,29.1q-.36,12.49-.56,25c-.12,9-.27,18.08-.56,27.12-.18,5.37-.12,10.74-.27,16.11-.24,8.18-.32,16.38-.58,24.57-.17,5.46-.19,10.92-.34,16.38,0,1.24.32,1.62,1.58,1.61,7.07-.06,14.14,0,21.22,0a2.46,2.46,0,0,0,1.51-.18c7.77,0,15.53,0,23.3.06.87,0,1.14-.3,1.12-1.15-.11-5.69-.08-11.38-.4-17.07,0-.08-.1-.16-.15-.24,0,.08.11.16.15.24l-.06-3.13v-1.13a.91.91,0,0,0,0-.77c0-.37.07-.75.06-1.12-.14-5.93-.32-11.86-.45-17.79-.1-4.47,0-8.95-.35-13.42,0-1.21,0-2.42,0-3.64.16-2.09-.21-4.17-.19-6.26l-.06-.84c.09-3.3,0-6.58-.15-9.88-.26-8.52-.41-17-.59-25.56-.14-6.35-.25-12.71-.39-19.07-.06-2.58-.18-5.17-.27-7.75-.21-.12-.41-.25-.6-.38a3.89,3.89,0,0,1-1-1,3.89,3.89,0,0,0,1,1c.19.13.39.26.6.38,0-.19,0-.39,0-.58,0-3.53-.05-7.05-.17-10.57-.21-6.3-.25-12.61-.38-18.91-.07-3.19-.2-6.38-.3-9.58l-.06-1.69c0-5.28-.33-10.56,0-15.85.47,1,1,1.87,1.48,2.79l19.59,38.5c1.33,2.62,1.33,2.62,3.86,1.24.16-.09.34-.16.5-.26,1.8-1.08,1.79-1.08.63-2.78-.29-.43-.53-.89-.81-1.33Q126.92,134,115.05,115.82c-1.11-1.71-2.19-3.37-1.9-5.59.13-.92.25-1.38,1.29-1.28s2.07,0,3.11.06h0a6.91,6.91,0,0,0,2.54,1.69c2.12,1.39,4.23,2.8,6.36,4.18q15.9,10.35,31.81,20.69c1,.65,1.63.79,2.13-.49a8,8,0,0,1,1.19-2.07c.88-1.06.49-1.56-.58-2.08-4.13-2-8.24-4.13-12.35-6.22l-28-14.28c-.46-.41-1.21-.45-1.53-1.17,1.71-.13,3.36.44,5,0l4.52.22a3.23,3.23,0,0,0,2.25.08l2.28.16h0c1.79,0,3.56.61,5.35.13l.43,0a3.61,3.61,0,0,0,2.68.2,13.72,13.72,0,0,0,4.82.23l3.68.26,1.14,0,1.11,0q8.27.44,16.51.85c4.94.24,9.89.43,14.82.71,2,.11,2,.18,2-1.85ZM114.43,27.49c-.1.09-.19.19-.28.28a4.15,4.15,0,0,0-.76.38,4.15,4.15,0,0,1,.76-.38c.09-.09.18-.19.28-.28ZM110.19,167a1.28,1.28,0,0,1-.79-.34,1.28,1.28,0,0,0,.79.34h0Zm1.13,1.13-.28-.27.28.27h0Zm1.41-37.35a5.71,5.71,0,0,0-1.32.75,5.71,5.71,0,0,1,1.32-.75h0ZM115.85,278a.57.57,0,0,1-.42-.13.57.57,0,0,0,.42.13h0Zm-3.4-108.68a1.28,1.28,0,0,1-.79-.34,1.28,1.28,0,0,0,.79.34h0Zm-.56-139.23a4.08,4.08,0,0,1-.88,1.38,4.08,4.08,0,0,0,.88-1.38v0h0v0a4.1,4.1,0,0,0,1.38-.89A4.1,4.1,0,0,1,111.89,30.05Zm22.28,79.47a4.71,4.71,0,0,1,.53,0A4.71,4.71,0,0,0,134.17,109.52Z"/><path class="cls-1" d="M37.61,36.41C45,43,52.33,49.7,59.75,56.29c2.17,1.91,4.08,4.12,6.54,5.7-2-2.67-4.41-5-6.59-7.45-3.07-3.51-6.28-6.89-9.39-10.35C44.84,38.12,39.41,32,33.94,25.94c-1.32-1.46-1.35-1.43-2.81,0-.5.5-1,1-1.55,1.45-.79.65-.71,1.2,0,1.85Q33.62,32.82,37.61,36.41Z"/><path class="cls-1" d="M65.73,115.81a1.85,1.85,0,0,0-1.29.71c-.91.88-1.81,1.77-2.75,2.62-3.68,3.29-7.38,6.54-11,9.84-4.36,3.93-8.69,7.89-13,11.83q-4,3.58-8,7.12c-.6.52-.83.94-.12,1.59A35.09,35.09,0,0,1,32,152.14c.47.54.77.31,1.13-.09,1-1.15,2.1-2.28,3.14-3.44L53.05,130Z"/><path class="cls-1" d="M156,147.83c-9.24-8.29-18.42-16.64-27.66-24.93a65.63,65.63,0,0,0-6.37-5.52h0l-.29-.38a9.43,9.43,0,0,0-3-2.58c1,.94,1.47,2.45,2.83,3.08a.25.25,0,0,0,.18.12l.07.1s0,.06,0,.08l.1.12c1.87,2.11,3.73,4.23,5.62,6.32q7.92,8.81,15.88,17.59c3,3.28,6,6.52,8.89,9.83.67.76,1.13,1,1.84.11a12.1,12.1,0,0,1,2-2C157,149,156.79,148.58,156,147.83Z"/><path class="cls-1" d="M72,114.12h0Z"/><path class="cls-1" d="M70.89,115.31q-5.58,8.55-11.12,17.13-6.59,10.17-13.16,20.35c-1.53,2.36-1.56,2.35.79,3.86s2.23,1.42,3.37-.82q4.44-8.66,8.85-17.31c2.87-5.62,5.79-11.22,8.62-16.87A75.17,75.17,0,0,0,72,114.12C71.34,114.27,71.18,114.86,70.89,115.31Z"/><path class="cls-1" d="M119.59,61.9a11.27,11.27,0,0,0,3-2.7h0a.85.85,0,0,0,.61-.54l.56-.51h.08v-.09c.33-.27.67-.52,1-.81,3.38-3.06,6.75-6.14,10.14-9.19q10.59-9.53,21.21-19c.56-.49.62-.85.07-1.37a31.7,31.7,0,0,1-2.39-2.39c-.66-.77-1.09-.56-1.67.09-2.5,2.8-5.05,5.57-7.56,8.37L122.34,58.61A13.2,13.2,0,0,0,119.59,61.9Z"/><path class="cls-1" d="M66.37,115.12c-.43.08-.5.39-.6.66C66.05,115.65,66.41,115.59,66.37,115.12Z"/><path class="cls-1" d="M65.77,115.78h0l0,0h0Z"/><path class="cls-1" d="M118.7,62.65s0-.06,0-.09l-.1-.05-.05.1S118.68,62.66,118.7,62.65Z"/><path class="cls-1" d="M66.35,62.05l0,0h0l0,0s0,0,0,0Z"/></svg>