<svg id="Capa_1" data-name="Capa 1" xmlns="http://www.w3.org/2000/svg" viewBox="0 0 300 268.65" fill="#fff"><path d="M55.69,93c2.24-.27,3.05-1.55,2.89-3.75-.26-3.5-.23-7-.6-10.51-.31-2.93.68-3.8,3.63-3.79,18.47.12,36.94.07,55.41.06,11.79,0,18.13-4.88,20.88-16.28.46-1.92,1.21-2.65,3.09-2.46,1,.1,2.08,0,3.12,0,7.42,0,7.42,0,5.62,7.4a31.2,31.2,0,0,1-30.14,23.8q-22.23.19-44.48,0c-3.33,0-4.49,1-4,4.21a25.18,25.18,0,0,1,.12,3.89c0,2.21.67,4.74-.18,6.54-1.1,2.29-4,.66-6,1.05-2.6.49-3.55,3.7-1.76,6.49a6.47,6.47,0,0,0,5.63,3c2.79.05,4,1.22,4.21,4.22.46,8.44,1.31,16.85,1.88,25.28A16.84,16.84,0,0,0,83.11,156c5.27,3.36,10.76,6.43,15.65,10.27s10.45,4.71,16.45,4.28a9.85,9.85,0,0,0,4.65-1.77c6.48-4.1,12.9-8.31,19.47-12.28,5.72-3.46,8.58-8.46,9-15,.53-8.05,1.23-16.08,1.66-24.13.14-2.45.91-3.86,3.42-4.33a6.72,6.72,0,0,0,5-4c1.89-3.93,1.24-5.48-3-6.05-2.8-.38-4-1.37-3.73-4.44.47-4.79.56-9.61.66-14.42,0-2.12.75-3.2,3-2.94a6.77,6.77,0,0,0,.78,0c8.68,0,8.69,0,8.66,8.55,0,1.42,0,2.67,1.19,3.89,8,8.17,8.1,18.46-.26,26.3a12,12,0,0,0-4,9.14c-.23,5.58-.7,11.16-1.37,16.7a27.19,27.19,0,0,1-11.71,19.46c-2.15,1.54-3.16,3.11-3,5.76.18,4,0,8.06.06,12.09,0,1.45,0,2.93,1.74,3.53l21.38,7.24V176.12c0-15.35.08-30.7-.07-46.05,0-2.91.87-3.78,3.69-3.83,8.88-.18,8.88-.27,8.88,8.72,0,19.77.07,39.54-.07,59.31,0,3,.87,4.35,3.73,5.21,6.22,1.88,12.34,4.06,18.46,6.24,7.95,2.83,12.13,8.69,12.21,17.15.08,9.76.16,19.51,0,29.27-.08,3.34,1,4.08,4.2,4.06,25.23-.12,50.47,0,75.71-.14,3.52,0,4.67.87,4.56,4.51-.24,8.06-.05,8.07-7.94,8.07q-143,0-286.06,0c-6.68,0-5.77.82-5.87-5.75a18.26,18.26,0,0,0,0-2.34c-.43-3.19.45-5,4.13-4.41,2.9.48,3.47-1.18,3.45-3.68q-.12-14.06,0-28.1c.06-10.62,3.8-15.75,13.76-19.11,5.41-1.83,10.77-3.86,16.25-5.47,3.27-1,4.43-2.6,4.4-6.09-.16-21.33-.09-42.66-.07-64,0-7-.2-5.89,6.18-6a11.59,11.59,0,0,0,1.56,0c3.72-.55,4.9.94,4.86,4.74-.17,20.42,0,40.84-.15,61.26,0,3.65,1,4.16,4.15,3,5.23-2,10.55-3.71,15.87-5.41,2.17-.69,3.29-1.78,3-4.18a24.55,24.55,0,0,1,0-5.07c.71-6.47-.42-11.62-6.4-15.95-5.74-4.15-8-11.06-8.54-18.2-.49-6-1-11.93-1.42-17.89a3.88,3.88,0,0,0-1.67-3.24c-11.67-8.54-12.88-18.54-3.69-29.75Zm55.8,163.11q43.89,0,87.78.05c2.69,0,4-.42,3.89-3.56-.2-9.75-.1-19.51,0-29.26,0-3.16-1.37-5-4.39-6.06q-27.51-9.27-55-18.71a4.51,4.51,0,0,0-5.45,1.4c-4.34,4.66-9.25,8.85-13.2,13.81-4.42,5.56-9.65,7.5-16.55,6.84-3.06-.3-5.32-1-7.44-3.29C95.7,211.55,90,206,84.58,200.23c-1.79-1.9-3.4-2.17-5.83-1.34q-26.89,9.27-53.89,18.27c-3.37,1.12-4.75,3.1-4.71,6.6.1,9.23.2,18.47-.06,27.69-.11,3.78,1,4.79,4.8,4.77C53.76,256.07,82.63,256.14,111.49,256.13ZM90.06,181.91c-1,4.36.93,7.39,4,10.27,4.61,4.37,8.89,9.09,13.35,13.62,3,3.1,4.78,3.1,7.83,0,4.56-4.62,8.88-9.49,13.65-13.88,3.24-3,5-6.17,4.23-10.54-.29-1.72.92-4.13-.81-5-1.38-.7-2.92,1.24-4.31,2.12-10.83,6.82-21.69,7-32.64.3-1.51-.92-3.17-3.08-4.62-2.26C89,177.5,90.37,180.1,90.06,181.91Z" transform="translate(0)"/><path d="M55.8,92.92c-3.51.06-7,.08-10.52.17-1.7,0-2.76-.47-2.73-2.38.22-14.13-1.22-28.37,3.2-42.19,9.86-30.85,39.77-51,71.61-48.27,33.22,2.9,59,27.53,63.27,60.43,1.28,10,1,20.05.34,30-.33,5.07-5.68,1.46-8.63,2.34-2,.59-3.72.07-3.65-2.89.17-7,.09-14,0-21.07C168.54,40,147.45,16.72,117.8,12.88,90.66,9.37,63.9,27.79,57,55.1,53.85,67.58,54.69,80.33,55.69,93Z" transform="translate(0)"/><path d="M278.62,252.34c-3.76,1-5.52-.62-6.53-5.28-2-9.13-10.61-14.91-20.1-14.51a19.47,19.47,0,0,0-18.33,15.83c-.59,3.42-2,4.43-5.09,4a2.54,2.54,0,0,0-.39,0c-8.47,0-8.86-.39-6.32-8.75,3.46-11.44,11.06-19,22.47-22.38,2.54-.76,3.47-1.89,3.17-4.33a5.08,5.08,0,0,1,0-.78c0-9.43,0-9.38,9.75-8.65,1.91.14,3.12.71,2.73,2.74-1.45,7.46,1.53,11.22,8.72,14.16,8.82,3.62,13.76,11.61,16,20.93C286.36,252,286.08,252.34,278.62,252.34Z" transform="translate(0)"/><path d="M241.91,201.91c-.08.74-7.58,8.31-8.19,8.11a5.29,5.29,0,0,1-1.9-1.22c-5.16-4.94-10.24-10-15.45-14.86-1.6-1.51-1.51-2.48,0-4.09,6.55-7.16,6.49-7.21,13.45-.42,3.53,3.45,7.1,6.86,10.64,10.31C241.05,200.35,241.86,200.87,241.91,201.91Z" transform="translate(0)"/><path d="M291.89,192.25c-.38.44-.85,1.05-1.39,1.59-4.85,4.87-9.77,9.67-14.54,14.62-1.62,1.67-2.63,1.77-4.4.08-6.88-6.6-6.94-6.53-.29-13.18,3.48-3.49,7-6.92,10.43-10.48,1.39-1.45,2.44-1.54,3.81,0,1.65,1.82,3.48,3.49,5.2,5.25C291.23,190.65,292,191.1,291.89,192.25Z" transform="translate(0)"/><path d="M247.5,186.17c0-3.25.08-6.5,0-9.74-.07-2.2.55-3.22,3-3.35,9.53-.51,9.52-.59,9.52,8.92,0,4.55-.11,9.09,0,13.63.09,2.58-.61,3.65-3.44,3.69-9.11.12-9.11.24-9.11-8.87C247.49,189,247.49,187.59,247.5,186.17Z" transform="translate(0)"/><path d="M64.13,249.9c-4,0-8.06-.15-12.07,0-2.66.13-3.27-1-3.34-3.39-.26-9.16-.33-9.16,8.81-9.16,6.23,0,12.46.12,18.68-.05,2.66-.08,3.27,1,3.34,3.39.27,9.16.34,9.16-8.81,9.16Z" transform="translate(0)"/><path d="M116.37,230.4c-.1,7,.84,6.29-6.09,6.33-5.33,0-5.33,0-5.34-6,0-6.56,0-6.58,6-6.55C117.07,224.24,116.3,223.73,116.37,230.4Z" transform="translate(0)"/><path d="M116.35,249.11c-.09,7.14.9,6.1-6.43,6.44-3.8.18-5.22-.78-5.08-4.87.29-8.18,1.33-9.2,9.52-7.73,1.47.26,2,.93,2,2.29S116.35,247.82,116.35,249.11Z" transform="translate(0)"/></svg>